Coordinates
version=1
nRows=14
nColumns=36
inDegrees=yes

Units are S.I. units (second, meters, Newtons, ...)
If the header above contains a line with 'inDegrees', this indicates whether rotational values are in degrees (yes) or radians (no).

endheader
time	pelvis_tilt	pelvis_list	pelvis_rotation	pelvis_tx	pelvis_ty	pelvis_tz	hip_flexion_r	hip_adduction_r	hip_rotation_r	knee_angle_r	knee_angle_r_beta	ankle_angle_r	subtalar_angle_r	mtp_angle_r	hip_flexion_l	hip_adduction_l	hip_rotation_l	knee_angle_l	knee_angle_l_beta	ankle_angle_l	subtalar_angle_l	mtp_angle_l	lumbar_extension	lumbar_bending	lumbar_rotation	arm_flex_r	arm_add_r	arm_rot_r	elbow_flex_r	pro_sup_r	arm_flex_l	arm_add_l	arm_rot_l	elbow_flex_l	pro_sup_l
      0.91000000	    -11.71064904	     -0.15598203	     -1.44106493	     -0.45954611	      1.07624872	     -0.58651219	     30.34997474	     -1.38740918	     -4.63313447	      5.13363710	      0.08959887	    -26.59289966	     -0.95926706	     -6.92288048	     30.97180181	     -6.65683535	     -8.28585151	     10.64131380	      0.18572596	    -31.04276843	     -0.85070598	     -6.92288048	    -17.90513349	     -4.70175692	     -3.14131340	    -27.97655138	    -34.53286701	    -30.57067360	    131.10253772	    101.21699184	    -19.86138248	    -32.26016684	    -13.50511184	    128.81448186	    110.66089333
      0.92000000	    -11.78802648	     -0.27178516	     -0.96742286	     -0.44968210	      1.05172649	     -0.58688381	     31.36717973	     -1.52425512	     -4.76027891	      6.73100292	      0.11747816	    -26.41875957	     -1.42170650	     -7.07561923	     32.10679090	     -6.75090642	     -7.28052314	     13.03627131	      0.22752586	    -31.79991011	     -1.25986841	     -7.07561923	    -18.07034021	     -4.48230595	     -2.70547899	    -31.85411810	    -33.08057367	    -34.33986266	    133.43737226	    100.99547502	    -19.01083533	    -33.80129763	    -13.52384730	    129.75264423	    110.42228840
      0.93000000	    -11.79939557	     -0.32961653	     -0.52386262	     -0.43976565	      1.02628848	     -0.58704063	     32.47087648	     -1.71229698	     -4.79640553	      8.79575451	      0.15351488	    -26.79527241	     -1.29550991	     -7.11582253	     33.28675041	     -6.83146717	     -6.58078541	     15.60916236	      0.27243128	    -32.88511338	     -0.85887792	     -7.11582253	    -18.30262100	     -4.35294726	     -3.32162804	    -33.66436689	    -32.18802825	    -35.75711997	    135.26927241	     99.33035946	    -19.64619530	    -34.76979918	    -14.94115984	    131.34496989	    108.18002281
      0.94000000	    -11.86257405	     -0.34302311	     -0.00148979	     -0.43000778	      0.99988337	     -0.58739702	     33.81772001	     -1.99331130	     -4.72951026	     11.37397270	      0.19851327	    -27.31134715	     -1.26631641	     -7.13616543	     34.59418048	     -6.68287603	     -5.49015111	     18.48290640	      0.32258757	    -33.09762066	     -1.37929047	     -7.13616543	    -18.40387266	     -4.24818312	     -3.86779101	    -35.16984293	    -31.00322776	    -36.87283450	    136.90211635	     98.86706843	    -19.57535183	    -35.78577700	    -15.70698617	    132.34026326	    107.47480261
      0.95000000	    -11.98301950	     -0.28672443	      0.63445941	     -0.42072935	      0.97280646	     -0.58788843	     35.33687690	     -2.31117088	     -4.23865867	     15.01975104	      0.26214411	    -23.33631723	     -2.25694504	     -7.16913705	     36.03070065	     -6.21339306	     -3.95912400	     22.66430614	      0.39556676	    -27.49786394	     -3.50253953	     -7.16913705	    -18.32479492	     -4.31992950	     -4.48096134	    -35.94383170	    -29.69873636	    -37.07083555	    138.20126727	     97.45296959	    -18.70366591	    -36.96905402	    -15.53315718	    133.09478082	    105.47255810
      0.96000000	    -12.08672149	     -0.47232928	      1.25135856	     -0.41249400	      0.94491328	     -0.58851094	     36.89912498	     -2.25365529	     -3.39791104	     20.07720932	      0.35041341	    -11.81249304	     -4.39939282	     -7.25552933	     37.86422366	     -5.94433579	     -2.49319630	     29.09389533	      0.50778427	    -13.42823672	     -5.38169927	     -7.25552933	    -18.06651225	     -3.73614045	     -1.17503013	    -40.93846648	    -25.21264206	    -42.39094618	    140.86347896	    100.19375868	     -9.67179939	    -39.02994404	     -7.82023793	    129.76765232	    108.52758445
      0.97000000	    -12.22147558	     -0.82000398	      1.52954643	     -0.40569907	      0.91702020	     -0.58863719	     39.25388604	     -1.87103793	     -2.61837411	     26.78813888	      0.46754122	      1.65506276	     -6.87334281	     -7.31891735	     40.06214360	     -6.13063408	     -1.68194597	     36.15397131	      0.63100584	      2.02765910	     -5.84730677	     -7.31891735	    -18.02941703	     -3.35800097	     -0.05139096	    -41.64485318	    -23.28164342	    -43.16758938	    142.14055497	    101.27978306	     -4.29134951	    -39.62092838	     -3.81375519	    128.30203200	    109.11005071
      0.98000000	    -12.58483578	     -1.08321743	      1.68095827	     -0.40210154	      0.89044966	     -0.58885732	     43.90653073	     -1.85120159	     -2.29041848	     36.04036548	      0.62902304	     10.06234294	     -8.27007865	     -7.34564484	     42.94616013	     -6.15174814	     -0.57591396	     42.52152316	      0.74214058	     12.32256695	     -6.28971777	     -7.34564484	    -18.24087225	     -3.22926205	      0.18007724	    -39.97768269	    -22.54634047	    -41.81387839	    142.81552875	    100.03170907	      0.48022205	    -39.55735278	     -0.91033067	    127.41989802	    107.33074414
      0.99000000	    -13.53359296	     -0.94977628	      2.07372858	     -0.40139257	      0.86528674	     -0.58919906	     50.95550296	     -2.35059386	     -1.28195903	     47.03460166	      0.82090866	     12.27590626	    -10.01820018	     -7.36888851	     47.11177878	     -5.28522982	      1.19734536	     48.65253984	      0.84914701	     16.67718658	     -8.62248823	     -7.36888851	    -18.07072464	     -3.59477451	      1.11281665	    -38.28097538	    -20.78367933	    -41.22808460	    143.07502524	    100.67764899	      8.32070379	    -38.95267904	      4.46081102	    124.43209781	    108.36657093
      1.00000000	    -15.01153834	     -1.08991536	      2.79066042	     -0.40009329	      0.84198287	     -0.58945533	     57.92468402	     -2.62063923	     -0.32235905	     56.43925481	      0.98505082	     12.45193833	    -11.44393468	     -7.37147837	     52.50437537	     -4.23501954	      3.37202417	     55.43398332	      0.96750553	     18.44894862	    -10.40685403	     -7.37147837	    -17.46129263	     -3.84410891	     -0.21192214	    -33.73151286	    -20.55889827	    -37.25676822	    141.92741844	    100.92569220	     12.31398527	    -37.98872200	      6.20558072	    122.92119721	    108.43741023
      1.01000000	    -16.33210387	     -1.61020828	      2.95528225	     -0.39713430	      0.82136651	     -0.58884652	     62.79419523	     -2.10730750	      0.28097814	     62.69095875	      1.09416364	     13.63294172	    -12.28593023	     -7.37356333	     57.74512602	     -4.05229835	      4.84569616	     62.32767602	      1.08782316	     19.46434924	    -11.21766606	     -7.37356333	    -17.01953917	     -3.83660050	     -1.16438679	    -28.63085933	    -20.40787254	    -32.83843005	    140.05696813	    101.18963755	     15.84415923	    -36.66285577	      7.69891755	    121.09060208	    108.58840624
      1.02000000	    -16.86445529	     -2.13105546	      2.47086105	     -0.39332305	      0.80484739	     -0.58770019	     65.17825410	     -1.21959178	      0.43536101	     66.35736778	      1.15815455	     16.04998945	    -12.15252360	     -7.38943461	     61.30514481	     -4.70388946	      5.46453031	     67.98170077	      1.18650451	     20.95965492	    -10.61925794	     -7.38943461	    -17.78587095	     -3.80402298	     -3.05649291	    -21.25595548	    -21.08108752	    -26.29685112	    136.87522256	    103.26284458	     17.03995159	    -35.61597866	      6.14611480	    120.19265157	    110.70048891
      1.03000000	    -16.64452070	     -2.54815373	      1.80887408	     -0.39015129	      0.79204130	     -0.58651975	     65.93676242	     -0.25219550	      0.42030585	     68.56200390	      1.19663271	     17.86328581	    -13.04362702	     -7.39066390	     63.09475150	     -5.54481438	      5.74626927	     71.97615487	      1.25622089	     21.86725857	    -11.04301754	     -7.39066390	    -19.75133336	     -3.72803438	     -2.98602791	    -15.59731457	    -20.60013148	    -22.35209162	    134.48559060	    103.36747777	     21.43254697	    -33.54525118	      7.48779732	    117.49062364	    110.48781510
      1.04000000	    -16.51340152	     -2.78960440	      1.57952136	     -0.38752930	      0.78097756	     -0.58611365	     66.53207702	      0.25408931	      0.43180162	     70.33594021	      1.22759374	     19.64966482	    -13.88078906	     -7.39198715	     64.29170295	     -5.77935759	      6.12484397	     74.73266037	      1.30433098	     23.01386048	    -11.27167681	     -7.39198715	    -21.77712357	     -3.69280067	     -3.09346599	    -10.06966948	    -19.95445795	    -18.59526248	    131.99294633	    103.46023305	     26.09970442	    -31.37257402	      9.18629412	    114.68450221	    110.28552870
